<?xml version="1.0" encoding="iso-8859-1"?>
<!-- Uploaded to: SVG Repo, www.svgrepo.com, Generator: SVG Repo Mixer Tools -->
<svg fill="#000000" height="800px" width="800px" version="1.1" id="Layer_1" xmlns="http://www.w3.org/2000/svg" xmlns:xlink="http://www.w3.org/1999/xlink" 
	 viewBox="0 0 512 512" xml:space="preserve">
<g>
	<g>
		<g>
			<path d="M256,34.133c9.412,0,17.067-7.654,17.067-17.067C273.067,7.654,265.412,0,256,0c-9.412,0-17.067,7.654-17.067,17.067
				C238.933,26.479,246.588,34.133,256,34.133z"/>
			<path d="M452.267,102.4H59.733c-4.719,0-8.533,3.823-8.533,8.533v341.333c0,3.831,2.56,7.194,6.246,8.218
				c3.695,1.007,7.62-0.538,9.6-3.823c0.486-0.811,49.451-81.195,103.62-81.195c55.194,0,87.535,31.334,87.834,31.633
				c1.877,1.877,4.523,2.748,7.125,2.406c2.628-0.333,4.949-1.886,6.289-4.164c0.324-0.546,33.903-55.475,146.219-55.475
				c4.719,0,8.533-3.823,8.533-8.533s-3.814-8.533-8.533-8.533c-22.818,0-42.539,2.167-59.733,5.623v-23.552
				c19.447-3.968,34.133-21.197,34.133-41.805c0-1.109-0.495-110.933-42.667-110.933S307.2,271.957,307.2,273.067
				c0,20.608,14.686,37.837,34.133,41.805v27.571c-44.971,12.57-68.344,34.338-78.259,46.199
				c-13.67-10.522-45.551-30.242-92.407-30.242c-43.657,0-81.903,40.158-102.4,66.705V119.467h375.467v324.267H93.867
				c-4.719,0-8.533,3.823-8.533,8.533c0,4.71,3.814,8.533,8.533,8.533h358.4c4.719,0,8.533-3.823,8.533-8.533V110.933
				C460.8,106.223,456.986,102.4,452.267,102.4z M324.267,273.067c0-42.513,11.418-93.867,25.6-93.867
				c14.182,0,25.6,51.354,25.6,93.867c0,14.114-11.486,25.6-25.6,25.6S324.267,287.181,324.267,273.067z"/>
			<path d="M230.4,221.867c4.719,0,8.533-3.823,8.533-8.533c0-4.71-3.823-8.533-8.533-8.533h-26.47
				c-1.101-5.436-3.277-10.479-6.246-14.95l18.748-18.765c3.336-3.336,3.336-8.738,0-12.075c-3.328-3.319-8.73-3.328-12.066,0.009
				l-18.739,18.756c-4.471-2.961-9.523-5.137-14.959-6.246l-0.009-26.47c0-4.719-3.823-8.533-8.533-8.533
				c-4.719,0-8.533,3.814-8.533,8.533l0.009,26.47c-5.436,1.109-10.487,3.277-14.959,6.238l-18.765-18.748
				c-3.337-3.319-8.747-3.328-12.075,0.009c-3.328,3.337-3.328,8.738,0.008,12.066l18.756,18.739
				c-2.97,4.48-5.137,9.523-6.246,14.967H93.858c-4.719,0-8.533,3.823-8.533,8.533c0,4.71,3.814,8.533,8.533,8.533h26.462
				c1.109,5.436,3.277,10.487,6.246,14.959l-18.748,18.748c-3.337,3.328-3.337,8.73,0,12.066c1.664,1.664,3.849,2.5,6.033,2.5
				s4.369-0.836,6.033-2.5l18.748-18.748c4.48,2.97,9.515,5.137,14.959,6.246V281.6c0,4.71,3.814,8.533,8.533,8.533
				s8.533-3.823,8.533-8.533v-26.462c5.436-1.109,10.487-3.277,14.959-6.246l18.748,18.748c1.673,1.664,3.849,2.5,6.033,2.5
				c2.185,0,4.369-0.836,6.033-2.5c3.336-3.337,3.336-8.738,0-12.066l-18.748-18.748c2.97-4.471,5.137-9.523,6.238-14.959H230.4z
				 M187.725,213.359c-0.017,14.097-11.477,25.557-25.574,25.574c-0.009,0-0.017-0.009-0.026-0.009s-0.017,0.009-0.026,0.009
				c-14.106-0.017-25.574-11.494-25.574-25.6c0-14.114,11.486-25.6,25.6-25.6c14.106,0,25.583,11.469,25.6,25.574
				c0,0.017-0.009,0.017-0.009,0.026C187.716,213.342,187.725,213.35,187.725,213.359z"/>
			<path d="M494.933,422.835v-282.47C505.83,130.62,512,117.009,512,102.4c0-28.237-22.963-51.2-51.2-51.2
				c-14.618,0-28.228,6.17-37.965,17.067h-86.502L296.166,28.1c-3.337-3.337-8.73-3.337-12.066,0s-3.337,8.73,0,12.066l28.1,28.1
				H199.799l28.1-28.1c3.336-3.336,3.336-8.73,0-12.066c-3.337-3.337-8.73-3.337-12.066,0l-40.166,40.166H89.165
				C79.428,57.37,65.818,51.2,51.2,51.2C22.963,51.2,0,74.163,0,102.4c0,14.609,6.17,28.22,17.067,37.965v282.47
				C6.17,432.58,0,446.191,0,460.8C0,489.037,22.963,512,51.2,512c14.618,0,28.228-6.17,37.965-17.067h333.67
				C432.572,505.83,446.182,512,460.8,512c28.237,0,51.2-22.963,51.2-51.2C512,446.191,505.83,432.58,494.933,422.835z
				 M460.8,494.933c-10.667,0-20.557-4.983-27.136-13.679c-1.613-2.133-4.13-3.388-6.81-3.388H85.146
				c-2.68,0-5.197,1.254-6.81,3.388c-6.579,8.695-16.469,13.679-27.136,13.679c-18.825,0-34.133-15.309-34.133-34.133
				c0-10.667,4.983-20.557,13.688-27.136c2.133-1.613,3.379-4.13,3.379-6.81V136.346c0-2.679-1.246-5.197-3.379-6.81
				c-8.704-6.579-13.688-16.469-13.688-27.136c0-18.825,15.309-34.133,34.133-34.133c10.667,0,20.557,4.983,27.136,13.679
				c1.613,2.133,4.13,3.388,6.81,3.388h341.709c2.679,0,5.197-1.254,6.81-3.388c6.579-8.695,16.469-13.679,27.136-13.679
				c18.825,0,34.133,15.309,34.133,34.133c0,10.667-4.983,20.557-13.687,27.136c-2.133,1.613-3.379,4.13-3.379,6.81v290.509
				c0,2.679,1.246,5.197,3.379,6.81c8.704,6.579,13.687,16.469,13.687,27.136C494.933,479.625,479.625,494.933,460.8,494.933z"/>
		</g>
	</g>
</g>
</svg>