<?xml version="1.0" encoding="iso-8859-1"?>
<!-- Uploaded to: SVG Repo, www.svgrepo.com, Generator: SVG Repo Mixer Tools -->
<svg fill="#000000" height="800px" width="800px" version="1.1" id="Layer_1" xmlns="http://www.w3.org/2000/svg" xmlns:xlink="http://www.w3.org/1999/xlink" 
	 viewBox="0 0 512 512" xml:space="preserve">
<g>
	<g>
		<path d="M295.614,366.105c-1.597-16.31-9.169-35.153-20.254-50.403c-8.201-11.284-18.343-22.37-31.006-33.887
			c-1.47-1.337-3.386-2.078-5.373-2.078H99.545c-1.988,0-3.903,0.741-5.373,2.078c-12.663,11.52-22.804,22.604-31.005,33.887
			c-11.084,15.25-18.656,34.093-20.255,50.403c-2.31,23.585,8.384,32.896,11.899,35.956c20.65,17.978,57.757,19.487,90.926,19.487
			c0.011,0,0.026,0,0.035,0c4.053,0,8.054-0.022,11.983-0.046c7.832-0.048,15.183-0.048,23.015,0
			c3.926,0.022,7.93,0.046,11.985,0.046c13.859,0,30.016-0.261,44.788-2.193c4.373-0.573,7.454-4.58,6.881-8.954
			c-0.572-4.373-4.573-7.453-8.954-6.881c-13.862,1.814-29.372,2.058-42.716,2.058c-4.023,0-7.996-0.022-11.889-0.046
			c-7.892-0.048-15.311-0.048-23.204,0c-3.908,0.022-7.917,0.003-11.925,0.046c-30.276,0-63.949-1.207-80.438-15.562
			c-2.393-2.084-7.998-6.963-6.49-22.354c1.333-13.605,7.793-29.52,17.279-42.571c7.066-9.722,15.776-19.357,26.572-29.385h133.211
			c10.795,10.026,19.505,19.661,26.572,29.385c9.487,13.053,15.946,28.967,17.278,42.571c1.509,15.393-4.095,20.271-6.487,22.353
			c-1.675,1.457-3.637,2.846-5.833,4.128c-3.809,2.223-5.094,7.113-2.871,10.921s7.114,5.094,10.921,2.871
			c3.059-1.785,5.841-3.761,8.268-5.875C287.231,399,297.925,389.691,295.614,366.105z"/>
	</g>
</g>
<g>
	<g>
		<path d="M84.675,147.707h-43.92c-4.41,0-7.985,3.575-7.985,7.985c0,4.41,3.575,7.985,7.985,7.985h43.919
			c4.41,0,7.985-3.575,7.985-7.985C92.659,151.282,89.085,147.707,84.675,147.707z"/>
	</g>
</g>
<g>
	<g>
		<path d="M89.629,119.727L62.728,98.449c-3.459-2.736-8.479-2.151-11.216,1.308c-2.736,3.459-2.15,8.481,1.308,11.216
			l26.901,21.278c1.466,1.16,3.213,1.723,4.949,1.723c2.357,0,4.692-1.039,6.268-3.031
			C93.674,127.484,93.088,122.463,89.629,119.727z"/>
	</g>
</g>
<g>
	<g>
		<path d="M90.938,180.442c-2.736-3.459-7.758-4.045-11.216-1.308l-26.9,21.278c-3.459,2.735-4.045,7.757-1.308,11.216
			c1.576,1.992,3.91,3.031,6.268,3.031c1.734,0,3.482-0.563,4.949-1.723l26.9-21.278C93.088,188.922,93.674,183.9,90.938,180.442z"
			/>
	</g>
</g>
<g>
	<g>
		<path d="M486.135,330.552c0.046-0.346,0.07-0.697,0.07-1.052c0-16.585-11.513-31.054-28.474-38.567
			c0.023-0.452,0.061-0.904,0.061-1.357c0-9.432-0.899-18.916-2.671-28.19c-13.475-70.496-75.374-121.664-147.182-121.664h-26.208
			H212.38v-8.137c11.44-3.439,19.799-14.064,19.799-26.61c0-31.496-25.624-57.12-57.12-57.12h-11.591
			c-31.496,0-57.12,25.624-57.12,57.12c0,12.545,8.36,23.17,19.799,26.61v71.249c-18.639,13.409-39.335,28.467-57.84,44.951
			c-3.293,2.933-3.585,7.981-0.65,11.274s7.982,3.584,11.274,0.651c18.331-16.33,38.332-30.817,57.775-44.798h65.119
			c34.538,24.834,70,50.652,95.067,85.141c22.515,30.978,42.241,89.054,4.303,122.083c-30.451,26.51-78.336,26.23-120.577,25.981
			c-7.724-0.046-14.98-0.046-22.704,0c-42.246,0.249-90.127,0.529-120.578-25.981c-37.938-33.027-18.212-91.104,4.303-122.083
			c4.509-6.204,9.6-12.441,15.13-18.534c2.964-3.265,2.718-8.316-0.547-11.279c-3.266-2.964-8.316-2.718-11.279,0.547
			c-5.916,6.52-11.374,13.207-16.221,19.877c-15.576,21.43-25.851,47.415-28.19,71.29c-2.915,29.728,6.185,54.704,26.315,72.229
			c35.001,30.469,88.318,30.156,131.157,29.906c7.66-0.045,14.855-0.045,22.516,0c44.179,0.26,95.742,0.926,131.158-29.906
			c20.131-17.524,29.231-42.5,26.319-72.228c-2.339-23.875-12.614-49.859-28.19-71.29c-26.256-36.125-62.255-62.53-97.428-87.83
			v-9.879h69.351h26.208c43.819,0,82.239,29.594,93.428,71.969c2.118,8.019,3.192,16.313,3.192,24.651
			c0,0.454,0.037,0.905,0.061,1.357c-16.961,7.513-28.474,21.982-28.474,38.567c0,0.354,0.025,0.706,0.07,1.052
			c-16.343,13.259-25.864,33.012-25.864,54.458c0,38.732,31.511,70.243,70.243,70.243h21.162c15.669,0,30.504-5.061,42.898-14.637
			c3.49-2.697,4.133-7.711,1.437-11.201c-2.696-3.49-7.711-4.134-11.2-1.437c-9.574,7.396-21.031,11.306-33.135,11.306h-21.162
			c-29.925,0-54.273-24.347-54.273-54.273c0-17.434,8.144-33.424,22.007-43.646l38.718,23.392c2.539,1.534,5.719,1.534,8.259,0
			l38.719-23.392c13.863,10.222,22.007,26.212,22.007,43.646c0,7.126-1.369,14.065-4.068,20.628
			c-1.678,4.079,0.268,8.744,4.347,10.422c4.079,1.677,8.745-0.268,10.422-4.347c3.496-8.499,5.269-17.483,5.269-26.703
			C512,363.564,502.479,343.81,486.135,330.552z M196.409,198.943h-54.293V132.76h54.293V198.943z M134.132,116.79
			c-6.515,0-11.815-5.301-11.815-11.815c0-22.691,18.46-41.15,41.15-41.15h11.591c22.691,0,41.15,18.46,41.15,41.15
			c0,6.515-5.3,11.815-11.815,11.815H134.132z M273.745,176.985h-61.366v-21.293h61.366V176.985z M441.78,286.264
			c-0.019-0.691-9.474-0.816-10.605-0.816c-0.901,0-10.708,0.358-10.695,0.829c-0.151-5.171-0.657-10.321-1.512-15.408h21.54
			C441.227,275.973,441.651,281.122,441.78,286.264z M307.938,176.985h-18.223v-21.293h18.223
			c60.889,0,113.802,41.171,129.324,99.208h-22.2C400.118,208.724,356.924,176.985,307.938,176.985z M431.175,348.593
			l-38.616-23.331c2.045-9.667,10.97-17.73,23.06-21.519c0.145-0.035,0.29-0.054,0.433-0.098c4.903-1.49,10.001-2.227,15.123-2.227
			c5.117,0,10.229,0.731,15.125,2.227c0.192,0.06,0.386,0.104,0.581,0.148c12.012,3.809,20.873,11.843,22.909,21.47L431.175,348.593
			z"/>
	</g>
</g>
</svg>